# xmcd
#
# Track frame offsets:
# 150
# 20690
# 38827
# 71574
# 98802
# 123488
# 148670
# 174723
# 192922
#
# Disc length: 2787 seconds
#
#
# Revision: 0
# Processed by: cddbd v1.5.2PL0 Copyright (c) Steve Scherf et al.
# Submitted via: FreeRIP 2.91 
#
DISCID=800ae109
DTITLE=Bare i Placenici - Izgubljen i nadjen
DYEAR=2001
DGENRE=Rock
TTITLE0=Zato te volim, volim, volim
TTITLE1=Ostat cu svoj
TTITLE2=Nista lazno
TTITLE3=Pokreni se
TTITLE4=Nacin poseban
TTITLE5=Prolaznost te spoznala
TTITLE6=Neka se cudo desi
TTITLE7=Ne pomisljaj na kraj
TTITLE8=Put ka sreci
EXTD=
EXTT0=
EXTT1=
EXTT2=
EXTT3=
EXTT4=
EXTT5=
EXTT6=
EXTT7=
EXTT8=
PLAYORDER=
